<?xml version="1.0" encoding="UTF-8" standalone="no"?>
<!-- Created with Inkscape (http://www.inkscape.org/) -->

<svg
   width="137.93764mm"
   height="35.686493mm"
   viewBox="0 0 137.93764 35.686493"
   version="1.1"
   id="svg5"
   inkscape:version="1.1 (c68e22c387, 2021-05-23)"
   sodipodi:docname="logo-cubos.svg"
   xmlns:inkscape="http://www.inkscape.org/namespaces/inkscape"
   xmlns:sodipodi="http://sodipodi.sourceforge.net/DTD/sodipodi-0.dtd"
   xmlns="http://www.w3.org/2000/svg"
   xmlns:svg="http://www.w3.org/2000/svg">
  <sodipodi:namedview
     id="namedview7"
     pagecolor="#ffffff"
     bordercolor="#111111"
     borderopacity="1"
     inkscape:pageshadow="0"
     inkscape:pageopacity="0"
     inkscape:pagecheckerboard="1"
     inkscape:document-units="mm"
     showgrid="false"
     inkscape:zoom="1.1474186"
     inkscape:cx="271.47894"
     inkscape:cy="-11.76554"
     inkscape:window-width="1366"
     inkscape:window-height="697"
     inkscape:window-x="-8"
     inkscape:window-y="-8"
     inkscape:window-maximized="1"
     inkscape:current-layer="layer1" />
  <defs
     id="defs2">
    <inkscape:path-effect
       effect="fill_between_many"
       method="originald"
       linkedpaths="#path1544-3,0,1"
       id="path-effect895"
       is_visible="true"
       lpeversion="0"
       join="true"
       close="true"
       autoreverse="true"
       applied="false" />
  </defs>
  <g
     inkscape:label="Capa 1"
     inkscape:groupmode="layer"
     id="layer1"
     transform="translate(22.215467,6.8052267)">
    <g
       id="g58687">
      <path
         style="fill:#3bdcbb;fill-opacity:1;stroke:none;stroke-width:0.264583px;stroke-linecap:butt;stroke-linejoin:miter;stroke-opacity:1"
         d="m 100.47683,11.617025 0.0815,13.859402 13.28872,0.08153 V 11.535503 Z"
         id="path1838-5" />
      <path
         style="fill:#9ceddc;fill-opacity:1;stroke:none;stroke-width:0.264583px;stroke-linecap:butt;stroke-linejoin:miter;stroke-opacity:1"
         d="m 100.47683,11.617025 2.07891,-2.405015 13.16643,0.203817 -1.87512,2.119678 z"
         id="path1840-8" />
      <path
         style="fill:#1d8b73;fill-opacity:1;stroke:none;stroke-width:0.264583px;stroke-linecap:butt;stroke-linejoin:miter;stroke-opacity:1"
         d="m 115.72217,9.415827 v 14.470845 l -1.87512,1.671286 V 11.535505 Z"
         id="path1842-3" />
    </g>
    <g
       id="g57725">
      <path
         style="fill:#ea8354;fill-opacity:1;stroke:none;stroke-width:0.264583px;stroke-linecap:butt;stroke-linejoin:miter;stroke-opacity:1"
         d="m 89.591154,11.566372 11.702446,5.13063 -5.130626,11.875386 -11.5295,-5.130628 z"
         id="path1064-1" />
      <path
         style="fill:#f2b79c;fill-opacity:1;stroke:none;stroke-width:0.264583px;stroke-linecap:butt;stroke-linejoin:miter;stroke-opacity:1"
         d="m 101.2936,16.697002 -1.03765,-3.97768 -11.760096,-5.188276 1.0953,4.035326 z"
         id="path1179-9" />
      <path
         style="fill:#a74214;fill-opacity:1;stroke:none;stroke-width:0.264583px;stroke-linecap:butt;stroke-linejoin:miter;stroke-opacity:1"
         d="m 88.495854,7.531046 -4.78474,11.471855 0.92236,4.438859 4.95768,-11.875388 z"
         id="path1181-9" />
    </g>
    <g
       id="g57195">
      <path
         style="fill:#ae77b2;fill-opacity:1;stroke:none;stroke-width:0.264583px;stroke-linecap:butt;stroke-linejoin:miter;stroke-opacity:1"
         d="M 69.123308,15.033264 71.313912,27.485127 83.996365,25.29452 81.921055,12.842657 Z"
         id="path869-4" />
      <path
         style="fill:#cdabcf;fill-opacity:1;stroke:none;stroke-width:0.264583px;stroke-linecap:butt;stroke-linejoin:miter;stroke-opacity:1"
         d="M 69.123308,15.033264 70.01324,10.248519 83.074006,8.461445 81.921055,12.842657 Z"
         id="path871-1"
         sodipodi:nodetypes="ccccc" />
      <path
         style="fill:#754478;fill-opacity:1;stroke:none;stroke-width:0.264583px;stroke-linecap:butt;stroke-linejoin:miter;stroke-opacity:1"
         d="m 83.074006,8.461445 1.84472,12.336569 -0.922361,4.496506 -2.07531,-12.451863 z"
         id="path873-8" />
    </g>
    <g
       id="g56207">
      <path
         style="fill:#fdca01;fill-opacity:1;stroke:none;stroke-width:0.264583px;stroke-linecap:butt;stroke-linejoin:miter;stroke-opacity:1"
         d="m 54.136074,12.592387 0.0815,13.859402 13.28872,0.08153 V 12.510865 Z"
         id="path1838" />
      <path
         style="fill:#fee06c;fill-opacity:1;stroke:none;stroke-width:0.264583px;stroke-linecap:butt;stroke-linejoin:miter;stroke-opacity:1"
         d="m 54.136074,12.592387 2.07891,-2.405015 13.16643,0.203817 -1.87512,2.119678 z"
         id="path1840" />
      <path
         style="fill:#8b6f01;fill-opacity:1;stroke:none;stroke-width:0.264583px;stroke-linecap:butt;stroke-linejoin:miter;stroke-opacity:1"
         d="m 69.381414,10.391189 v 14.470845 l -1.87512,1.671286 V 12.510867 Z"
         id="path1842" />
    </g>
    <g
       id="g39782">
      <path
         style="fill:#0094ce;fill-opacity:1;stroke:none;stroke-width:0.264583px;stroke-linecap:butt;stroke-linejoin:miter;stroke-opacity:1"
         d="m 51.715456,12.067082 1.8751,12.799566 -13.04415,1.712044 -1.7528,-13.003381 z"
         id="path1506" />
      <path
         style="fill:#27c2ff;fill-opacity:1;stroke:none;stroke-width:0.264583px;stroke-linecap:butt;stroke-linejoin:miter;stroke-opacity:1"
         d="m 38.793606,13.575311 0.85602,-2.975695 13.04414,-1.589755 -0.97831,3.057221 z"
         id="path1508" />
      <path
         style="fill:#005070;fill-opacity:1;stroke:none;stroke-width:0.264583px;stroke-linecap:butt;stroke-linejoin:miter;stroke-opacity:1"
         d="m 52.693766,9.009861 1.87509,12.758804 -0.9783,3.097983 -1.8751,-12.799566 z"
         id="path1510"
         sodipodi:nodetypes="ccccc" />
    </g>
    <g
       id="g26864">
      <path
         style="fill:#00a952;fill-opacity:1;stroke:none;stroke-width:0.264583px;stroke-linecap:butt;stroke-linejoin:miter;stroke-opacity:1"
         d="m 28.210332,11.362524 11.70245,5.13063 -5.13063,11.875386 -11.5295,-5.130628 z"
         id="path1064" />
      <path
         style="fill:#00eb74;fill-opacity:1;stroke:none;stroke-width:0.264583px;stroke-linecap:butt;stroke-linejoin:miter;stroke-opacity:1"
         d="m 39.912782,16.493154 -1.03765,-3.97768 -11.7601,-5.188276 1.0953,4.035326 z"
         id="path1179" />
      <path
         style="fill:#00612f;fill-opacity:1;stroke:none;stroke-width:0.264583px;stroke-linecap:butt;stroke-linejoin:miter;stroke-opacity:1"
         d="m 27.115032,7.327198 -4.78474,11.471855 0.92236,4.438859 4.95768,-11.875388 z"
         id="path1181" />
    </g>
    <g
       id="g13613">
      <path
         style="fill:#e3213a;fill-opacity:1;stroke:none;stroke-width:0.264583px;stroke-linecap:butt;stroke-linejoin:miter;stroke-opacity:1"
         d="M 7.399587,14.763729 9.590191,27.215592 22.272644,25.024985 20.197334,12.573122 Z"
         id="path869" />
      <path
         style="fill:#f35c6d;fill-opacity:1;stroke:none;stroke-width:0.264583px;stroke-linecap:butt;stroke-linejoin:miter;stroke-opacity:1"
         d="M 7.399587,14.763729 8.289519,9.978984 21.350285,8.19191 20.197334,12.573122 Z"
         id="path871"
         sodipodi:nodetypes="ccccc" />
      <path
         style="fill:#810f0b;fill-opacity:1;stroke:none;stroke-width:0.264583px;stroke-linecap:butt;stroke-linejoin:miter;stroke-opacity:1"
         d="m 21.350285,8.19191 1.84472,12.336569 -0.922361,4.496506 -2.07531,-12.451863 z"
         id="path873" />
    </g>
    <g
       aria-label="R"
       transform="matrix(-1.0263111,0.31568128,0.37749766,0.85824956,0,0)"
       id="text59804"
       style="font-size:21.9668px;line-height:1.25;font-family:'My Kids Handwritten-Basic';-inkscape-font-specification:'My Kids Handwritten-Basic';letter-spacing:0px;word-spacing:0px;fill:#fdfdfd;stroke-width:0.549172">
      <path
         d="m -4.6657492,20.49703 q -0.3954025,-0.197702 -0.8127717,-0.197702 -0.5711368,0 -1.1203068,0.373436 l -0.3514688,0.263602 -0.0659,1.933078 q 0,0.285569 -0.021967,0.768838 0,0.461303 0,0.615071 l 0.021967,0.593103 h 0.043934 q 0.54917,0 1.427842,-0.439336 0.8127717,-0.395402 1.2960413,-1.054406 0.5052364,-0.659004 0.5052364,-1.318008 0,-0.263602 -0.0659,-0.48327 -0.2416348,-0.746871 -0.8567052,-1.054406 z m -1.1642405,-1.120307 q 0.2636016,-0.0659 0.5272032,-0.0659 0.6150705,0 1.1862073,0.241635 0.5931036,0.219668 0.9226056,0.615071 0.5931036,0.68097 0.5931036,1.867178 0,0.702937 -0.2636016,1.274074 -0.439336,0.900639 -1.64751,1.64751 l -0.5272033,0.329502 0.9226057,0.307535 q 2.6799497,0.900639 4.0418913,2.284548 0.48326961,0.505236 0.48326961,0.746871 0,0.131801 -0.109834,0.241635 -0.109834,0.109834 -0.26360161,0.109834 -0.39540241,0 -1.8012777,-0.812772 -1.4937424,-0.878672 -2.3943812,-1.208174 -0.659004,-0.263602 -1.6255433,-0.54917 -0.9445724,-0.285568 -1.1203068,-0.285568 h -0.021967 q -0.021967,0.02197 0.1757344,1.559643 0.3954024,2.767816 0.3954024,3.316986 0,0.351469 -0.087867,0.461303 -0.087867,0.109834 -0.3075352,0.109834 -0.3734356,0 -0.8567052,-1.757344 -0.5711369,-2.130779 -0.5711369,-5.711368 0,-2.416348 0.1537676,-3.360921 0.1537677,-0.944572 0.5711369,-0.944572 h 0.021967 q 0.043934,0.02197 0.0659,0.02197 h 0.0659 q 0.2416348,0 0.8567052,-0.219668 z"
         id="path866" />
    </g>
    <g
       aria-label="e"
       transform="rotate(45)"
       id="text63470"
       style="font-size:20.2125px;line-height:1.25;fill:#fdfdfd;stroke-width:0.505312">
      <path
         d="m 37.588246,-8.8398354 q -0.4851,-0.202125 -0.747863,-0.2627625 -0.303187,-0.08085 -0.444675,-0.08085 -0.1617,0 -0.424462,0.1414874 -0.747863,0.3840375 -0.848925,1.334025 -0.04042,0.4851 0.04042,0.4851 0.121275,0 0.88935,-0.282975 0.788287,-0.3031875 1.152112,-0.5053125 0.687225,-0.363825 0.687225,-0.525525 0,-0.1617 -0.303187,-0.3031875 z m -1.85955,-1.2531746 q 0.363825,-0.101063 0.707437,-0.101063 1.394663,0 2.284013,0.8893502 0.202125,0.2021249 0.24255,0.3436124 0.06064,0.121275 0.06064,0.4244625 0,0.3031875 -0.08085,0.444675 -0.06064,0.121275 -0.384037,0.4244625 -0.8085,0.7478625 -2.607413,1.2329625 -0.6468,0.1819125 -0.6468,0.24255 0,0.121275 0.222338,0.5861625 0.222337,0.444675 0.40425,0.6468 0.24255,0.2627625 0.586162,0.3840375 0.202125,0.040425 0.303188,0.040425 0.545737,0 1.435087,-0.7074375 0.586163,-0.4648875 0.848925,-0.4648875 0.141488,0 0.262763,0.121275 0.141487,0.1414875 0.141487,0.3234 0,0.3031875 -0.424462,0.7882875 -0.949988,1.0308374 -2.223375,1.0308374 -1.111688,0 -1.798913,-0.8084999 -1.010625,-1.1925375 -1.010625,-2.951025 v -0.282975 q 0.06064,-2.0616749 1.677638,-2.6074121 z"
         style="font-family:'My Kids Handwritten-Basic';-inkscape-font-specification:'My Kids Handwritten-Basic'"
         id="path870" />
    </g>
    <g
       aria-label="M"
       transform="rotate(-8.6344534)"
       id="text70294"
       style="font-size:22.9237px;line-height:1.25;fill:#fdfdfd;stroke-width:0.573093">
      <path
         d="m 39.168832,20.473112 q 0.04585,-0.0917 0.320931,-0.04585 0.298008,0.04585 0.962796,0.916948 0.687711,0.848176 1.535888,2.246522 l 0.894024,1.512964 0.527245,-1.008642 q 0.573093,-1.077414 1.05449,-2.177752 0.573093,-1.23788 0.61894,-1.283727 0.114619,-0.160466 0.458474,-0.114619 0.366779,0.02292 0.527245,0.389703 0.320932,0.687711 0.985719,5.478765 0.573093,4.195037 0.573093,4.745206 0,0.320931 -0.114619,0.43555 -0.160465,0.18339 -0.481397,0.18339 -0.275085,0 -0.412627,-0.114619 -0.183389,-0.137542 -0.458474,-2.269446 -0.252161,-2.154828 -0.481398,-4.195037 -0.206313,-2.063134 -0.320931,-2.063134 -0.02292,0 -1.008643,1.833897 -0.664787,1.237879 -0.916948,1.604659 -0.252161,0.343855 -0.504322,0.343855 -0.114618,0 -0.183389,-0.02292 -0.320932,-0.06877 -1.85682,-2.521607 l -0.527245,-0.825253 -0.06877,1.696354 q 0,0.343855 -0.06877,1.788049 -0.04585,1.444193 -0.06877,2.131904 -0.06877,2.246522 -0.252161,2.429912 -0.18339,0.18339 -0.43555,0.18339 -0.229237,0 -0.389703,-0.137543 -0.114619,-0.06877 -0.160466,-0.275084 -0.02292,-0.229237 -0.04585,-1.008643 -0.02292,-0.802329 -0.04585,-2.567454 v -1.650507 q 0,-2.498683 0.137542,-3.78241 0.160466,-1.788049 0.206314,-1.85682 z"
         style="font-family:'My Kids Handwritten-Basic';-inkscape-font-specification:'My Kids Handwritten-Basic'"
         id="path874" />
    </g>
    <g
       aria-label="i"
       transform="scale(1.2487208,0.80081952)"
       id="text72404"
       style="font-size:22.7522px;line-height:1.25;fill:#fdfdfd;stroke-width:0.568806">
      <path
         d="m 48.231992,24.010485 q 0.136513,-0.136513 0.364035,-0.136513 0.295779,0 0.364036,0.20477 0.113761,0.432292 0.273026,2.548246 0.159265,2.093203 0.159265,3.139804 0,0.113761 -0.02275,0.250274 0,0.136513 0,0.159265 -0.113761,0.819079 -0.432292,0.819079 h -0.09101 q -0.295779,-0.0455 -0.432292,-0.409539 -0.136513,-0.386788 -0.20477,-1.387884 -0.09101,-1.160362 -0.09101,-2.980538 0,-2.047698 0.113761,-2.206964 z m 0.06826,-2.616503 q 0.182017,-0.113761 0.364035,-0.113761 0.250274,0 0.455044,0.20477 0.182018,0.182018 0.182018,0.318531 0,0.136513 -0.136514,0.341283 -0.136513,0.227522 -0.546052,0.227522 -0.250275,0 -0.364036,-0.113761 -0.113761,-0.113761 -0.113761,-0.40954 0,-0.364035 0.159266,-0.455044 z"
         style="font-family:'My Kids Handwritten-Basic';-inkscape-font-specification:'My Kids Handwritten-Basic'"
         id="path877" />
    </g>
    <g
       aria-label="c"
       transform="rotate(-16.320631)"
       id="text76098"
       style="font-size:22.3043px;line-height:1.25;fill:#fdfdfd;stroke-width:0.557608">
      <path
         d="m 67.967156,37.621852 q 0.06691,0 0.15613,-0.0223 0.111522,-0.0223 0.178435,-0.0223 0.08922,-0.0223 0.133826,-0.0223 0.178434,0 0.669129,0.200738 0.490694,0.223043 0.557607,0.446086 0.0223,0.04461 0.0223,0.133826 0,0.289956 -0.847563,0.446086 -0.914476,0.15613 -1.249041,0.736042 -0.111521,0.245347 -0.31226,1.271345 -0.200739,1.025998 -0.200739,1.427475 0,0.312261 0.178435,0.646825 0.178434,0.334565 0.356868,0.334565 h 0.178435 q 0.669129,0 1.360562,-0.535304 0.379173,-0.289956 0.736042,-0.289956 0.579912,0 0.579912,0.691434 0,0.31226 -0.423782,0.669129 -0.423782,0.334564 -1.092911,0.579912 -0.602216,0.223043 -1.182127,0.223043 -1.427476,0 -1.76204,-1.204433 -0.08922,-0.267651 -0.08922,-1.025997 0,-1.338258 0.223043,-2.163518 0.289956,-1.025997 0.802954,-1.739735 0.512999,-0.713738 1.025998,-0.780651 z"
         style="font-family:'My Kids Handwritten-Basic';-inkscape-font-specification:'My Kids Handwritten-Basic'"
         id="path880" />
    </g>
    <g
       aria-label="o"
       transform="rotate(30)"
       id="text79726"
       style="font-size:24.5592px;line-height:1.25;fill:#fdfdfd;stroke-width:0.613979">
      <path
         d="m 91.561509,-30.187202 q -0.29471,-0.61398 -0.442066,-0.810454 -0.147355,-0.221033 -0.343828,-0.221033 -0.171915,0 -0.515744,0.147355 -0.58942,0.270152 -0.982368,1.006928 -0.392947,0.736776 -0.442065,1.743703 -0.02456,0.221033 -0.02456,0.540302 0,0.442066 0.221032,0.785895 0.466625,0.835012 1.350756,0.835012 0.957809,0 1.448993,-0.957808 0.245592,-0.564862 0.245592,-1.25252 0,-0.736776 -0.515743,-1.81738 z m -1.080605,-2.210329 q 0.835013,-0.09824 0.884131,-0.09824 h 0.04912 q 0.392947,0 0.884131,0.61398 0.491184,0.61398 0.810454,1.473552 0.245592,0.638539 0.245592,1.866499 0,1.031486 -0.196474,1.670026 -0.736776,2.112091 -2.480479,2.112091 -1.498111,-0.02456 -2.333124,-0.908691 -0.810454,-0.884131 -0.810454,-2.45592 0,-0.04912 0,-0.196473 0.02456,-0.147355 0.02456,-0.196474 0.07368,-1.547229 0.835013,-2.627834 0.761335,-1.105164 2.087532,-1.25252 z"
         style="font-family:'My Kids Handwritten-Basic';-inkscape-font-specification:'My Kids Handwritten-Basic'"
         id="path883" />
    </g>
    <g
       aria-label="s"
       id="text81868"
       style="font-size:24.928px;line-height:1.25;fill:#fdfdfd;stroke-width:0.623202">
      <path
         d="m 105.86049,15.325419 q 0.34899,-0.49856 0.94727,-0.797696 0.59827,-0.299136 1.19654,-0.299136 0.94726,0 1.32118,0.573344 0.1745,0.274208 0.1745,0.423776 0,0.174496 -0.1745,0.348992 -0.14956,0.149568 -0.4487,0.149568 -0.24928,0 -0.42378,-0.02493 -0.14956,-0.02493 -0.4487,-0.02493 -0.34899,0 -0.54842,0.07478 -0.39884,0.149568 -0.39884,0.398848 0,0.274208 0.4487,0.274208 0.4487,0 1.12176,0.598272 0.69798,0.598272 1.04698,1.321184 0.37392,0.74784 0.37392,1.769888 0,0.697984 -0.1745,1.046976 -0.37392,0.74784 -1.12176,1.171616 -0.72291,0.398848 -1.59539,0.398848 -1.62032,0 -2.56759,-1.171616 -0.57334,-0.697984 -0.57334,-1.37104 0,-0.523488 0.42378,-0.722912 0.0997,-0.04986 0.29913,-0.04986 0.34899,0 0.7977,0.598272 0.79769,1.171616 1.8696,1.171616 0.49856,0 0.79769,-0.324064 0.32407,-0.348992 0.32407,-0.972192 0,-0.697984 -0.49856,-1.296256 -0.47363,-0.598272 -1.2464,-0.87248 -0.6232,-0.224352 -0.89741,-0.49856 -0.37392,-0.37392 -0.37392,-0.897408 0,-0.523488 0.34899,-0.99712 z"
         style="font-family:'My Kids Handwritten-Basic';-inkscape-font-specification:'My Kids Handwritten-Basic'"
         id="path886" />
    </g>
    <path
       inkscape:original-d="M 22.77397,7.5415886"
       inkscape:path-effect="#path-effect895"
       d="m -4.0001418,28.822679 c -0.6556076,-0.158215 -0.7858682,-0.45093 -0.7369806,-1.656106 0.056362,-1.38936 -0.027411,-1.752385 -0.6540669,-2.836853 -0.286016,-0.494925 -0.651512,-1.189134 -0.812211,-1.542684 l -0.292192,-0.642818 -0.811352,-0.0092 c -0.781652,-0.0089 -0.830221,-0.01826 -1.326131,-0.256299 -0.283133,-0.13589 -0.678241,-0.377012 -0.87803,-0.535825 -0.7806497,-0.62055 -1.6668037,-2.000461 -2.2433387,-3.493302 -0.133629,-0.345992 -0.492179,-1.486665 -0.796777,-2.534827 -0.646493,-2.224624 -0.910889,-2.965567 -1.382054,-3.873221 -0.621438,-1.197108 -1.603132,-2.2303539 -2.52056,-2.6529256 -0.99071,-0.4563259 -2.472046,-0.1589592 -3.291809,0.6608053 -0.378464,0.378462 -0.535904,0.6482833 -0.668399,1.1455123 -0.247003,0.926934 0.100505,2.302628 0.751203,2.974287 1.02008,1.052867 2.723497,0.858947 2.724543,-0.310171 2.53e-4,-0.414128 -0.108211,-0.666833 -0.258089,-0.600904 -0.484319,0.212992 -0.96812,0.01046 -1.234498,-0.51684 -0.327606,-0.648498 -0.128676,-1.38672 0.45693,-1.695656 0.410939,-0.216783 1.122677,-0.223152 1.533197,-0.01373 0.46599,0.23773 1.040996,0.837063 1.261898,1.315294 0.175494,0.379917 0.196938,0.501473 0.196938,1.116325 0,0.659072 -0.01156,0.713333 -0.25756,1.211059 -0.45255,0.915571 -1.254523,1.518575 -2.317909,1.742841 -0.816846,0.172271 -1.245672,0.114092 -2.030396,-0.275461 -0.549213,-0.272647 -0.767947,-0.431696 -1.223061,-0.889322 -0.931948,-0.937102 -1.337216,-1.820952 -1.396232,-3.045073 -0.0371,-0.769533 0.04778,-1.354802 0.276252,-1.9049303 0.231394,-0.5571045 0.712928,-1.2353373 1.179458,-1.661221 0.988453,-0.9023334 1.666991,-1.1330907 3.367194,-1.1450985 0.97849,-0.00694 1.150538,0.00969 1.578627,0.1518622 1.540782,0.5118893 2.829012,1.8418788 3.781347,3.9038926 0.468379,1.014155 1.033168,2.74193 1.364044,4.172818 0.450633,1.948788 0.609967,2.375714 1.2458807,3.338234 0.364417,0.55158 1.059742,1.216935 1.476438,1.412809 0.344778,0.162063 0.878128,0.2561 0.995542,0.175529 0.04282,-0.02938 0.128907,-0.253412 0.191302,-0.497856 0.231988,-0.908854 0.869113,-1.656213 2.0988116,-2.461952 0.4341215,-0.284452 0.9527424,-0.680452 1.1524872,-0.88 0.5929594,-0.592356 0.9065956,-1.419878 0.9065956,-2.392016 v -0.428565 l -1.1839816,0.03313 c -0.9195966,0.02574 -1.2974658,0.0089 -1.6922878,-0.07538 -0.552185,-0.117874 -1.247356,-0.415715 -1.602472,-0.686574 -0.204709,-0.156146 -0.284145,-0.170898 -0.920169,-0.170898 -1.020971,0 -1.567256,-0.180442 -2.0513547,-0.677579 -0.504574,-0.518165 -0.773484,-1.350697 -0.648738,-2.0084693 0.161953,-0.8539891 0.675719,-1.3487298 1.5342857,-1.4774798 l 0.304147,-0.045607 -0.434826,-0.8340998 c -0.8037787,-1.5418249 -1.1037647,-2.7652845 -1.0375717,-4.231584 0.04436,-0.982915 0.153653,-1.447133 0.5309717,-2.25533039 0.598464,-1.28186061 1.46598,-2.15510581 3.175628,-3.19659021 l 0.19477,-0.1186448 -0.272873,-0.2006738 c -0.150087,-0.1103688 -0.326725,-0.314147 -0.392532,-0.45284 -0.113253,-0.2386611 -0.113352,-0.2638943 -0.0022,-0.4710729 0.157693,-0.2928196 0.45692,-0.3743632 1.373742,-0.3743632 h 0.736992 l -0.222048,-0.2528982 c -0.725026,-0.8257511 -0.729407,-2.0399363 -0.0088,-2.5293732 0.3210553,-0.2181638 0.772812,-0.2271861 1.1092243,-0.022149 0.6690376,0.4077513 1.4796853,1.2868132 1.9865493,2.154169 0.1531359,0.2620691 0.2784428,0.425152 0.2784428,0.3624049 0,-0.1508406 0.538722,-0.2284179 1.544315,-0.2223865 1.7694668,0.010568 3.3636162,0.6646509 4.70554,1.9305572 1.4141556,1.3340419 2.207886,3.14220281 2.3640028,5.3853349 L 6.8217735,3.6153736 7.1418748,3.4719635 C 8.1310831,3.0287888 9.2875047,3.5626715 9.6988182,4.6524227 9.9069161,5.2037711 9.8610876,5.9316006 9.5865054,6.4360967 9.3348578,6.8984599 8.7721565,7.4028086 8.1873232,7.6901879 7.7498585,7.9051494 7.7248279,7.9314977 7.4841511,8.4303554 7.0935519,9.2399583 5.9345743,10.338635 4.6804809,11.08815 c -0.5005608,0.299164 -0.5489002,0.346582 -0.5117055,0.501962 0.084775,0.354134 0.4998892,0.941953 1.1378143,1.611182 0.7504173,0.787236 0.8527808,0.995418 0.7516513,1.528667 -0.1916658,1.010637 -0.650797,1.503621 -1.5187549,1.630726 l -0.314322,0.04603 0.031429,0.542785 c 0.028919,0.499566 0.049438,0.561887 0.2576988,0.782708 0.3535323,0.374853 0.5368197,0.922705 0.5414861,1.618521 0.00363,0.545071 -0.011129,0.609844 -0.2019651,0.884455 -0.1132485,0.162972 -0.2590925,0.397849 -0.3240929,0.521949 -0.1393777,0.266095 -0.3684562,0.44203 -0.5755545,0.44203 -0.081626,0 -0.1967043,0.07369 -0.255713,0.163747 -0.1217293,0.185783 -0.6298637,0.453978 -0.8601343,0.453978 -0.085534,0 -0.3882832,0.189542 -0.6851208,0.428976 -0.2925003,0.235936 -0.5980564,0.475306 -0.6790111,0.53193 -0.1419405,0.09927 -0.1450888,0.130116 -0.088286,0.863512 0.083222,1.074252 0.3001731,1.522873 0.9476015,1.959254 1.0302185,0.694396 1.2505443,0.946803 1.2505443,1.432642 0,0.315284 0.062428,0.237334 -0.9756131,1.218319 -0.2229722,0.210712 -0.4442051,0.360339 -0.5328105,0.360339 -0.083333,0 -0.2300395,0.06178 -0.3260205,0.137273 -0.1681181,0.132245 -0.2727956,0.137013 -2.859218,0.130245 -1.4765922,-0.0039 -2.7773713,-0.02939 -2.8906242,-0.05672 z"
       id="path897"
       style="fill:#ffb380;fill-opacity:1;stroke-width:0.259412" />
    <path
       style="fill:#2b1100;stroke-width:0.068636"
       d="m -4.0001418,28.822679 c -0.6556076,-0.158215 -0.7858682,-0.45093 -0.7369806,-1.656106 0.056362,-1.38936 -0.027411,-1.752385 -0.6540669,-2.836853 -0.286016,-0.494925 -0.651512,-1.189134 -0.812211,-1.542684 l -0.292192,-0.642818 -0.811352,-0.0092 c -0.781652,-0.0089 -0.830221,-0.01826 -1.326131,-0.256299 -0.283133,-0.13589 -0.678241,-0.377012 -0.87803,-0.535825 -0.7806497,-0.62055 -1.6668037,-2.000461 -2.2433387,-3.493302 -0.133629,-0.345992 -0.492179,-1.486665 -0.796777,-2.534827 -0.646493,-2.224624 -0.910889,-2.965567 -1.382054,-3.873221 -0.621438,-1.197108 -1.603132,-2.2303539 -2.52056,-2.6529256 -0.99071,-0.4563259 -2.472046,-0.1589592 -3.291809,0.6608053 -0.378464,0.378462 -0.535904,0.6482833 -0.668399,1.1455123 -0.247003,0.926934 0.100505,2.302628 0.751203,2.974287 1.02008,1.052867 2.723497,0.858947 2.724543,-0.310171 2.53e-4,-0.414128 -0.108211,-0.666833 -0.258089,-0.600904 -0.484319,0.212992 -0.96812,0.01046 -1.234498,-0.51684 -0.327606,-0.648498 -0.128676,-1.38672 0.45693,-1.695656 0.410939,-0.216783 1.122677,-0.223152 1.533197,-0.01373 0.46599,0.23773 1.040996,0.837063 1.261898,1.315294 0.175494,0.379917 0.196938,0.501473 0.196938,1.116325 0,0.659072 -0.01156,0.713333 -0.25756,1.211059 -0.45255,0.915571 -1.254523,1.518575 -2.317909,1.742841 -0.816846,0.172271 -1.245672,0.114092 -2.030396,-0.275461 -0.549213,-0.272647 -0.767947,-0.431696 -1.223061,-0.889322 -0.931948,-0.937102 -1.337216,-1.820952 -1.396232,-3.045073 -0.0371,-0.769533 0.04778,-1.354802 0.276252,-1.9049303 0.231394,-0.5571045 0.712928,-1.2353373 1.179458,-1.661221 0.988453,-0.9023334 1.666991,-1.1330907 3.367194,-1.1450985 0.97849,-0.00694 1.150538,0.00969 1.578627,0.1518622 1.540782,0.5118893 2.829012,1.8418788 3.781347,3.9038926 0.468379,1.014155 1.033168,2.74193 1.364044,4.172818 0.450633,1.948788 0.609967,2.375714 1.2458807,3.338234 0.364417,0.55158 1.059742,1.216935 1.476438,1.412809 0.344778,0.162063 0.878128,0.2561 0.995542,0.175529 0.04282,-0.02938 0.128907,-0.253412 0.191302,-0.497856 0.231988,-0.908854 0.869113,-1.656213 2.0988116,-2.461952 0.4341215,-0.284452 0.9527424,-0.680452 1.1524872,-0.88 0.5929594,-0.592356 0.9065956,-1.419878 0.9065956,-2.392016 v -0.428565 l -1.1839816,0.03313 c -0.9195966,0.02574 -1.2974658,0.0089 -1.6922878,-0.07538 -0.552185,-0.117874 -1.247356,-0.415715 -1.602472,-0.686574 -0.204709,-0.156146 -0.284145,-0.170898 -0.920169,-0.170898 -1.020971,0 -1.567256,-0.180442 -2.0513547,-0.677579 -0.504574,-0.518165 -0.773484,-1.350697 -0.648738,-2.0084693 0.161953,-0.8539891 0.675719,-1.3487298 1.5342857,-1.4774798 l 0.304147,-0.045607 -0.434826,-0.8340998 c -0.8037787,-1.5418249 -1.1037647,-2.7652845 -1.0375717,-4.231584 0.04436,-0.982915 0.153653,-1.447133 0.5309717,-2.25533039 0.598464,-1.28186061 1.46598,-2.15510581 3.175628,-3.19659021 l 0.19477,-0.1186448 -0.272873,-0.2006738 c -0.150087,-0.1103688 -0.326725,-0.314147 -0.392532,-0.45284 -0.113253,-0.2386611 -0.113352,-0.2638943 -0.0022,-0.4710729 0.157693,-0.2928196 0.45692,-0.3743632 1.373742,-0.3743632 h 0.736992 l -0.222048,-0.2528982 c -0.725026,-0.8257511 -0.729407,-2.0399363 -0.0088,-2.5293732 0.3210553,-0.2181638 0.772812,-0.2271861 1.1092243,-0.022149 0.6690376,0.4077513 1.4796853,1.2868132 1.9865493,2.154169 0.1531359,0.2620691 0.2784428,0.425152 0.2784428,0.3624049 0,-0.1508406 0.538722,-0.2284179 1.544315,-0.2223865 1.7694668,0.010568 3.3636162,0.6646509 4.70554,1.9305572 1.4141556,1.3340419 2.207886,3.14220281 2.3640028,5.3853349 L 6.8217735,3.6153736 7.1418748,3.4719635 C 8.1310831,3.0287888 9.2875047,3.5626715 9.6988182,4.6524227 9.9069161,5.2037711 9.8610876,5.9316006 9.5865054,6.4360967 9.3348578,6.8984599 8.7721565,7.4028086 8.1873232,7.6901879 7.7498585,7.9051494 7.7248279,7.9314977 7.4841511,8.4303554 7.0935519,9.2399583 5.9345743,10.338635 4.6804809,11.08815 c -0.5005608,0.299164 -0.5489002,0.346582 -0.5117055,0.501962 0.084775,0.354134 0.4998892,0.941953 1.1378143,1.611182 0.7504173,0.787236 0.8527808,0.995418 0.7516513,1.528667 -0.1916658,1.010637 -0.650797,1.503621 -1.5187549,1.630726 l -0.314322,0.04603 0.031429,0.542785 c 0.028919,0.499566 0.049438,0.561887 0.2576988,0.782708 0.3535323,0.374853 0.5368197,0.922705 0.5414861,1.618521 0.00363,0.545071 -0.011129,0.609844 -0.2019651,0.884455 -0.1132485,0.162972 -0.2590925,0.397849 -0.3240929,0.521949 -0.1393777,0.266095 -0.3684562,0.44203 -0.5755545,0.44203 -0.081626,0 -0.1967043,0.07369 -0.255713,0.163747 -0.1217293,0.185783 -0.6298637,0.453978 -0.8601343,0.453978 -0.085534,0 -0.3882832,0.189542 -0.6851208,0.428976 -0.2925003,0.235936 -0.5980564,0.475306 -0.6790111,0.53193 -0.1419405,0.09927 -0.1450888,0.130116 -0.088286,0.863512 0.083222,1.074252 0.3001731,1.522873 0.9476015,1.959254 1.0302185,0.694396 1.2505443,0.946803 1.2505443,1.432642 0,0.315284 0.062428,0.237334 -0.9756131,1.218319 -0.2229722,0.210712 -0.4442051,0.360339 -0.5328105,0.360339 -0.083333,0 -0.2300395,0.06178 -0.3260205,0.137273 -0.1681181,0.132245 -0.2727956,0.137013 -2.859218,0.130245 -1.4765922,-0.0039 -2.7773713,-0.02939 -2.8906242,-0.05672 z m 5.5114695,-0.361798 c 0.1416102,-0.141608 0.089497,-0.552218 -0.1177663,-0.928153 l -0.1976532,-0.358473 0.1928316,0.09971 c 0.2534761,0.131079 0.4607945,0.401609 0.5590322,0.729477 0.096212,0.321185 0.1635716,0.336673 0.2207485,0.05077 C 2.2988472,27.402569 2.1237165,27.066508 1.4390255,26.654286 1.1868704,26.50248 0.8756341,26.276568 0.7473769,26.152258 L 0.514189,25.926243 -0.0518224,26.033606 c -0.5992013,0.11367 -2.031089,0.133979 -3.5075048,0.04975 l -0.7946199,-0.04533 0.0033,0.652042 c 0.0022,0.358622 -0.0066,0.833265 -0.019044,1.054756 -0.018604,0.337254 0.0011,0.42651 0.12392,0.54909 0.1330127,0.133244 0.2429301,0.149758 1.2254826,0.184117 2.2240858,0.07777 4.4452323,0.06936 4.5317461,-0.01715 z m 1.3178202,-1.12742 c 0,-0.221004 -0.1236227,-0.516095 -0.2910803,-0.694869 -0.2555236,-0.272769 0.016072,-0.171058 0.2991493,0.112038 0.1579024,0.157901 0.2668952,0.33268 0.2675226,0.428976 7.816e-4,0.130105 0.014311,0.141979 0.067591,0.05955 C 3.3687134,26.935284 3.0281224,26.450429 2.3362096,26.048876 2.0529892,25.884502 2.0200415,25.880488 1.5937028,25.958436 l -0.4461315,0.08156 0.5124452,0.307881 c 0.5580194,0.335253 0.7878168,0.61038 0.9077847,1.086843 0.070123,0.278416 0.084874,0.294067 0.1690868,0.178927 0.050748,-0.0694 0.092249,-0.195478 0.092249,-0.280181 z m 0.4075113,-6.145472 c 0.3905596,-0.41922 0.368258,-1.121827 -0.05841,-1.840013 -0.1610618,-0.271109 -0.279951,-0.505821 -0.2641871,-0.521579 0.015742,-0.01578 0.1750862,0.111663 0.354075,0.283161 0.3869104,0.370725 0.6575758,0.912243 0.658506,1.31747 7.783e-4,0.341575 0.1371211,0.392879 0.3165039,0.119106 0.1780783,-0.27178 0.1052829,-1.196641 -0.1304302,-1.657001 -0.099669,-0.194656 -0.2207618,-0.369812 -0.2691034,-0.389237 -0.068053,-0.02735 -0.068526,-0.03654 -0.00209,-0.04073 0.1865151,-0.01178 0.6166846,0.522147 0.7081225,0.878918 0.1182363,0.461336 0.2278048,0.352058 0.1887244,-0.188222 C 4.7152309,18.829906 4.6536177,18.648168 4.46323,18.33828 4.2529558,17.996019 4.1424517,17.897876 3.6896865,17.651277 3.1183658,17.340107 2.7815793,17.107303 2.4386832,16.786527 L 2.2198061,16.581775 1.7575034,16.697904 c -0.5402521,0.135706 -1.2774088,0.484395 -1.811078,0.856676 l -0.3774951,0.26334 0.00771,0.645544 c 0.00661,0.512839 0.037979,0.70455 0.1542697,0.93258 0.2766815,0.54233 0.9091717,0.890712 1.7441809,0.960717 l 0.4659794,0.03907 -0.069132,-0.181727 c -0.092469,-0.243182 -0.041171,-0.228972 0.2112704,0.0585 0.116005,0.132123 0.2470253,0.240225 0.2911574,0.240225 0.047556,0 0.08025,0.109499 0.08025,0.269062 0,0.495947 0.4705149,0.740326 0.7818943,0.406104 z M 4.3309391,12.656064 C 4.2540244,12.541676 4.0696406,12.195742 3.921203,11.887322 3.5451798,11.106035 3.2151457,10.851702 2.66125,10.916366 2.4380026,10.942436 2.4189693,10.927876 2.3128608,10.650049 2.1869373,10.320313 1.9268893,10.080139 1.695793,10.080139 c -0.3326474,0 -0.4473094,0.441519 -0.2821085,1.086352 l 0.1086515,0.423945 -0.2339254,0.428823 c -0.3980035,0.729578 -0.4052139,1.235393 -0.023778,1.669785 0.2512965,0.286212 0.6419904,0.499524 1.0390582,0.567308 0.2817562,0.04809 0.2967385,0.03989 1.2262072,-0.671806 l 0.9409647,-0.720501 z m -5.6542809,0.07131 c 0.8035365,-0.106164 2.0140042,-0.337169 2.0440567,-0.390091 0.2821526,-0.496917 0.3860375,-0.80764 0.3478608,-1.040516 -0.023337,-0.14248 -0.061426,-0.270121 -0.084653,-0.283653 -0.023227,-0.01352 -0.3201971,0.04739 -0.6599559,0.135383 -0.7617052,0.197273 -1.9018961,0.221856 -2.6968572,0.05815 -0.7097022,-0.14615 -1.6358594,-0.509018 -2.356735,-0.923361 -0.3257349,-0.187228 -0.6100339,-0.3404133 -0.6317749,-0.3404133 -0.0218,0 -0.05912,0.1044903 -0.08311,0.2321973 -0.03357,0.179109 -0.07155,0.224879 -0.165949,0.20019 -0.297003,-0.07766 0.240024,-0.9814771 0.583173,-0.9814771 0.1153342,0 0.1383745,0.2505018 0.02653,0.2878018 -0.100615,0.03353 0.9605369,0.6151103 1.5273189,0.8370603 0.9236143,0.361683 1.2550949,0.419581 2.3903982,0.4175 0.953623,-0.0018 1.1134849,-0.01953 1.5428729,-0.17159 0.4424547,-0.15669 0.4833064,-0.18798 0.5351553,-0.409866 0.1199789,-0.5134283 0.4965163,-0.7441493 0.9564081,-0.5860453 0.2110172,0.07254 0.2659815,0.06742 0.4055001,-0.03782 0.088726,-0.06695 0.1464208,-0.133857 0.128114,-0.148665 C 2.4667372,9.5673387 2.3436102,9.4832287 2.2114891,9.3952114 1.2931255,8.7834452 0.8557455,7.9133939 1.1175218,7.219057 1.2423554,6.8879364 1.5973166,6.5825069 1.989948,6.4683656 2.5930793,6.2930317 3.1777937,6.4551886 3.8397575,6.9813866 L 4.1982589,7.2663529 4.3048188,7.0603026 c 0.0951,-0.1838973 0.095288,-0.2060514 0.00176,-0.2060514 -0.05896,0 -0.1047105,-0.059984 -0.1047105,-0.1372729 0,-0.1183597 0.045761,-0.137273 0.3321278,-0.137273 0.2562524,0 0.3889591,0.043119 0.5809034,0.1887509 0.1368293,0.1038078 0.2499039,0.2255327 0.2512788,0.2704915 0.00528,0.17385 -0.1546296,0.1651392 -0.3467082,-0.01889 C 4.7848215,6.7952466 4.768821,6.8073094 4.5195677,7.3969996 4.2293351,8.083635 3.6182592,8.963956 3.0087916,9.5734347 L 2.4516418,10.130591 2.5780826,10.34559 c 0.1061196,0.180504 0.1679199,0.214998 0.3850798,0.214998 0.2577241,0 0.6971946,0.232601 0.8780459,0.464739 C 4.0710397,11.320333 6.7588007,9.0217846 7.1535479,8.1926421 7.6037184,7.2470881 7.1759607,6.2868512 6.1269952,5.8882809 5.7457662,5.7434255 5.0964377,5.7132661 4.8778336,5.8302564 4.8015904,5.8710644 4.7276469,5.8929044 4.7135321,5.8787914 4.6994195,5.8646784 4.7610217,5.6227669 4.8504318,5.3412143 5.1926774,4.2634746 5.2482173,2.854679 4.9869606,1.8781224 4.6524043,0.62758801 3.7660879,-0.46903444 2.554602,-1.1313956 1.9481463,-1.4629687 1.4197721,-1.5882844 0.635533,-1.5865495 c -1.1337621,0.00264 -1.9049124,0.3723443 -2.9296597,1.40505507 l -0.5589772,0.5633166 -0.5048824,-0.13182825 c -0.6670451,-0.1741671 -1.78053,-0.23415328 -2.337162,-0.12591131 -0.687092,0.13361599 -1.253026,0.4411921 -1.765196,0.95936059 -0.805837,0.815269 -1.226683,1.7450482 -1.288869,2.8474633 -0.09423,1.6702153 0.709086,3.3764198 2.184952,4.6409201 0.277771,0.2379874 0.513634,0.4534234 0.524147,0.4787501 0.01101,0.025319 -0.108982,0.1038298 -0.26564,0.1744489 -0.363878,0.1640857 -0.81787,0.6057191 -0.984876,0.9580634 -0.434903,0.917587 -0.01519,1.867655 1.039873,2.353974 0.258485,0.119146 0.638974,0.246731 0.845522,0.283524 0.532139,0.09479 3.1032817,0.03607 4.0818935,-0.09322 z m -0.0022,-4.5047795 C -1.4402165,8.1892515 -1.6237351,8.0683413 -1.7333663,7.9539127 L -1.9326927,7.7458611 -1.7958491,7.5574405 c 0.2302266,-0.31703 0.7451707,-0.5312496 1.2774419,-0.5314389 0.377528,-1.376e-4 0.4876216,0.026067 0.6057181,0.1441597 0.1342347,0.1342335 0.1374161,0.1608482 0.045574,0.3807028 -0.124063,0.2969235 -0.4568425,0.5809034 -0.7887634,0.6730854 -0.2949442,0.081912 -0.3839349,0.081736 -0.6696432,-0.00132 z M -4.148445,7.7955622 C -4.2302363,7.7497128 -4.3622913,7.6290668 -4.4419691,7.5274628 -4.5874211,7.3419836 -4.8155672,6.8576457 -4.7759485,6.8184619 c 0.011669,-0.011515 0.1376032,-0.113395 0.2799069,-0.2263793 l 0.258738,-0.205425 -0.2415761,-0.1493028 c -0.2939755,-0.1816835 -0.3022537,-0.2938973 -0.040951,-0.555198 0.5639198,-0.5639231 1.4412554,0.1620492 1.4451303,1.195819 0.0022,0.4762358 -0.136436,0.7520146 -0.4519766,0.90175 -0.2615011,0.1240861 -0.4214511,0.1281614 -0.6217683,0.015819 z M 1.0030326,5.9685266 C 0.8793108,5.8930871 0.7118202,5.683895 0.60482,5.4711715 L 0.4201565,5.1040286 0.6997332,4.8531593 0.9793098,4.60229 0.7376016,4.4529047 C 0.4712789,4.2883082 0.4558453,4.2531599 0.5816806,4.0976474 0.8958342,3.7093962 1.4027863,3.6535447 1.7213322,3.9720894 1.9601343,4.2108893 2.211794,4.8293661 2.211794,5.1774449 c 0,0.7311473 -0.6304318,1.1437367 -1.2087614,0.7910817 z M -7.4895273,2.9107627 c -0.08322,-0.216769 -0.04293,-0.6195842 0.07662,-0.7672104 0.174612,-0.2155735 0.380104,-0.2997371 0.731795,-0.2997371 0.356833,0 0.404862,0.082727 0.117205,0.201877 -0.231426,0.09586 -0.638765,0.5055002 -0.780485,0.7848897 -0.08344,0.1645811 -0.107661,0.1779275 -0.145155,0.080184 z M 2.1207997,0.0696655 C 1.9351455,-0.0264916 1.6259787,-0.1154482 1.4172842,-0.13275318 1.2125197,-0.14974988 1.044974,-0.18590108 1.044974,-0.21312448 c 0,-0.089343 0.2449447,-0.27350338 0.4664748,-0.35073069 0.2837818,-0.0989312 0.6771618,0.0836847 0.8582145,0.39841295 0.2085184,0.3624732 0.1336403,0.43321774 -0.2488636,0.23510989 z m -9.975229,11.6364095 c -0.06044,-0.116979 -0.125384,-0.414843 -0.144197,-0.661925 -0.01882,-0.24708 -0.0688,-0.492759 -0.111084,-0.545953 -0.130789,-0.164569 -0.749706,-0.416678 -1.024659,-0.417382 -0.15667,-5.18e-4 -0.244439,-0.02817 -0.219021,-0.06931 0.0742,-0.1200983 0.868937,-0.07621 1.180383,0.06518 l 0.288108,0.130799 0.12687,-0.200375 0.126859,-0.2003733 -0.363493,-0.3905835 c -0.199932,-0.2148184 -0.363503,-0.4158346 -0.363503,-0.4467018 0,-0.030867 -0.177596,-0.055823 -0.394657,-0.055449 -0.539096,0.00104 -1.050837,0.239565 -1.203478,0.5612313 -0.1825607,0.384705 -0.2122717,0.7553133 -0.09335,1.1643443 0.2519891,0.866814 1.1248891,1.413074 2.0841701,1.304266 l 0.221068,-0.02509 z M 8.6626651,6.6753226 C 9.378336,6.0287539 9.4087265,4.9239402 8.7290229,4.2627195 8.602614,4.1397474 8.3935596,4.0099688 8.264458,3.9743208 7.9644743,3.8914947 7.4336056,3.9890278 7.0584939,4.195874 6.7761993,4.3515451 6.7760463,4.3518511 6.6702185,4.9784442 L 6.5643521,5.6052851 6.8608076,5.749316 c 0.3442689,0.1672583 0.3614175,0.1703274 0.3614175,0.064706 0,-0.1320429 0.3452343,-0.5416491 0.5741983,-0.6812645 0.1183156,-0.072148 0.2923341,-0.1293294 0.3867079,-0.1270804 0.162615,0.00385 0.1640263,0.00716 0.02697,0.062538 -0.2077324,0.083949 -0.541725,0.5131189 -0.6465786,0.8308314 -0.081065,0.2456239 -0.076067,0.297781 0.050539,0.5280737 0.077267,0.1405446 0.1610815,0.3712787 0.1862629,0.5127436 l 0.045783,0.2572101 0.274559,-0.1400702 C 8.2716762,6.9799684 8.515575,6.8082077 8.6626695,6.6753182 Z"
       id="path1544-3" />
  </g>
</svg>
